<mxfile host="app.diagrams.net" modified="2022-02-16T02:40:32.574Z" agent="5.0 (Windows NT 10.0; Win64; x64) AppleWebKit/537.36 (KHTML, like Gecko) Chrome/98.0.4758.102 Safari/537.36" etag="8H-ADp56fRcNbFJl2BRd" version="16.5.6" type="github">
  <diagram id="HA8o8jj6pBR4JWg6Elo8" name="Page-1">
    <mxGraphModel dx="2249" dy="772" grid="1" gridSize="10" guides="1" tooltips="1" connect="1" arrows="1" fold="1" page="1" pageScale="1" pageWidth="827" pageHeight="1169" math="0" shadow="0">
      <root>
        <mxCell id="0" />
        <mxCell id="1" parent="0" />
        <mxCell id="1IhakFrWTtzeg_XYV1vg-13" style="edgeStyle=orthogonalEdgeStyle;rounded=1;sketch=0;orthogonalLoop=1;jettySize=auto;html=1;shadow=0;startArrow=ERone;startFill=0;endArrow=ERzeroToMany;endFill=0;strokeColor=default;" parent="1" source="VdJja3_kcnfSSBlb8b41-1" target="VdJja3_kcnfSSBlb8b41-4" edge="1">
          <mxGeometry relative="1" as="geometry" />
        </mxCell>
        <mxCell id="VdJja3_kcnfSSBlb8b41-1" value="board" style="swimlane;childLayout=stackLayout;horizontal=1;startSize=30;horizontalStack=0;rounded=1;fontSize=14;fontStyle=0;strokeWidth=2;resizeParent=0;resizeLast=1;shadow=0;dashed=0;align=center;" parent="1" vertex="1">
          <mxGeometry y="380" width="160" height="150" as="geometry" />
        </mxCell>
        <mxCell id="VdJja3_kcnfSSBlb8b41-2" value="+ id&#xa;+ slug&#xa;+ title&#xa;+ article_Id&#xa;+ created_At&#xa;+ updated_At" style="align=left;strokeColor=none;fillColor=none;spacingLeft=4;fontSize=12;verticalAlign=top;resizable=0;rotatable=0;part=1;" parent="VdJja3_kcnfSSBlb8b41-1" vertex="1">
          <mxGeometry y="30" width="160" height="120" as="geometry" />
        </mxCell>
        <mxCell id="1IhakFrWTtzeg_XYV1vg-18" style="edgeStyle=orthogonalEdgeStyle;rounded=1;sketch=0;orthogonalLoop=1;jettySize=auto;html=1;shadow=0;fontColor=default;startArrow=ERone;startFill=0;endArrow=ERzeroToMany;endFill=0;strokeColor=default;" parent="1" source="VdJja3_kcnfSSBlb8b41-3" target="VdJja3_kcnfSSBlb8b41-8" edge="1">
          <mxGeometry relative="1" as="geometry" />
        </mxCell>
        <mxCell id="VdJja3_kcnfSSBlb8b41-3" value="article" style="swimlane;childLayout=stackLayout;horizontal=1;startSize=30;horizontalStack=0;rounded=1;fontSize=14;fontStyle=0;strokeWidth=2;resizeParent=0;resizeLast=1;shadow=0;dashed=0;align=center;" parent="1" vertex="1">
          <mxGeometry x="220" y="425" width="160" height="230" as="geometry" />
        </mxCell>
        <mxCell id="VdJja3_kcnfSSBlb8b41-4" value="+ id&#xa;+ board_Id&#xa;+ user_Id(author)&#xa;+ title&#xa;+ content&#xa;+ viewCount&#xa;+ thumbupCount&#xa;+ commentCount&#xa;+ deleteTime&#xa;+ mention&#xa;+ articleImgAddress&#xa;+ created_At&#xa;+ updated_At" style="align=left;strokeColor=none;fillColor=none;spacingLeft=4;fontSize=12;verticalAlign=top;resizable=0;rotatable=0;part=1;" parent="VdJja3_kcnfSSBlb8b41-3" vertex="1">
          <mxGeometry y="30" width="160" height="200" as="geometry" />
        </mxCell>
        <mxCell id="VdJja3_kcnfSSBlb8b41-5" value="reply" style="swimlane;childLayout=stackLayout;horizontal=1;startSize=30;horizontalStack=0;rounded=1;fontSize=14;fontStyle=0;strokeWidth=2;resizeParent=0;resizeLast=1;shadow=0;dashed=0;align=center;" parent="1" vertex="1">
          <mxGeometry x="870" y="570" width="160" height="190" as="geometry" />
        </mxCell>
        <mxCell id="VdJja3_kcnfSSBlb8b41-6" value="+ id&#xa;+ created_At&#xa;+ updated_At&#xa;+ user_Id(author)&#xa;+ comment_Id&#xa;+ content&#xa;+ thumbupCount&#xa;+ deleteTime&#xa;+ replyImgAddress" style="align=left;strokeColor=none;fillColor=none;spacingLeft=4;fontSize=12;verticalAlign=top;resizable=0;rotatable=0;part=1;" parent="VdJja3_kcnfSSBlb8b41-5" vertex="1">
          <mxGeometry y="30" width="160" height="160" as="geometry" />
        </mxCell>
        <mxCell id="VdJja3_kcnfSSBlb8b41-7" value="comment" style="swimlane;childLayout=stackLayout;horizontal=1;startSize=30;horizontalStack=0;rounded=1;fontSize=14;fontStyle=0;strokeWidth=2;resizeParent=0;resizeLast=1;shadow=0;dashed=0;align=center;" parent="1" vertex="1">
          <mxGeometry x="660" y="480" width="160" height="190" as="geometry" />
        </mxCell>
        <mxCell id="VdJja3_kcnfSSBlb8b41-8" value="+ id&#xa;+ created_At&#xa;+ updated_At&#xa;+ content&#xa;+ user_id(author)&#xa;+ article_Id(author)&#xa;+ thumbupCount&#xa;+ deleteTime&#xa;+ articleImgAddress" style="align=left;strokeColor=none;fillColor=none;spacingLeft=4;fontSize=12;verticalAlign=top;resizable=0;rotatable=0;part=1;" parent="VdJja3_kcnfSSBlb8b41-7" vertex="1">
          <mxGeometry y="30" width="160" height="160" as="geometry" />
        </mxCell>
        <mxCell id="1IhakFrWTtzeg_XYV1vg-87" style="edgeStyle=orthogonalEdgeStyle;rounded=1;sketch=0;orthogonalLoop=1;jettySize=auto;html=1;entryX=1;entryY=0.5;entryDx=0;entryDy=0;shadow=0;fontColor=default;startArrow=ERone;startFill=0;endArrow=ERzeroToMany;endFill=0;strokeColor=default;" parent="1" source="VdJja3_kcnfSSBlb8b41-9" target="VdJja3_kcnfSSBlb8b41-6" edge="1">
          <mxGeometry relative="1" as="geometry" />
        </mxCell>
        <mxCell id="VdJja3_kcnfSSBlb8b41-9" value="user" style="swimlane;childLayout=stackLayout;horizontal=1;startSize=30;horizontalStack=0;rounded=1;fontSize=14;fontStyle=0;strokeWidth=2;resizeParent=0;resizeLast=1;shadow=0;dashed=0;align=center;fontColor=default;fillColor=default;verticalAlign=middle;" parent="1" vertex="1">
          <mxGeometry x="440" y="610" width="160" height="300" as="geometry" />
        </mxCell>
        <mxCell id="VdJja3_kcnfSSBlb8b41-10" value="+ id&#xa;+ email&#xa;+ hashedPassword&#xa;+ nickname&#xa;+ salt&#xa;+ created_At&#xa;+ updated_At&#xa;&#xa;--------------------------------&#xa;virtual&#xa;+ password&#xa;&#xa;--------------------------------&#xa;method&#xa;+ makeSalt&#xa;+ encryptPassword&#xa;+ authenticate" style="align=left;strokeColor=none;fillColor=none;spacingLeft=4;fontSize=12;verticalAlign=top;resizable=0;rotatable=0;part=1;" parent="VdJja3_kcnfSSBlb8b41-9" vertex="1">
          <mxGeometry y="30" width="160" height="270" as="geometry" />
        </mxCell>
        <mxCell id="1IhakFrWTtzeg_XYV1vg-10" value="" style="edgeStyle=orthogonalEdgeStyle;fontSize=12;html=1;endArrow=ERone;endFill=0;entryX=0;entryY=0.5;entryDx=0;entryDy=0;exitX=1;exitY=0.25;exitDx=0;exitDy=0;strokeColor=default;rounded=1;startArrow=ERzeroToMany;startFill=0;shadow=0;" parent="1" source="VdJja3_kcnfSSBlb8b41-4" target="VdJja3_kcnfSSBlb8b41-9" edge="1">
          <mxGeometry width="100" height="100" relative="1" as="geometry">
            <mxPoint x="290" y="690" as="sourcePoint" />
            <mxPoint x="390" y="590" as="targetPoint" />
          </mxGeometry>
        </mxCell>
        <mxCell id="1IhakFrWTtzeg_XYV1vg-12" style="edgeStyle=orthogonalEdgeStyle;rounded=1;sketch=0;orthogonalLoop=1;jettySize=auto;html=1;entryX=-0.006;entryY=0.378;entryDx=0;entryDy=0;entryPerimeter=0;shadow=0;startArrow=ERone;startFill=0;endArrow=ERzeroToMany;endFill=0;strokeColor=default;" parent="1" source="VdJja3_kcnfSSBlb8b41-10" target="VdJja3_kcnfSSBlb8b41-8" edge="1">
          <mxGeometry relative="1" as="geometry" />
        </mxCell>
        <mxCell id="1IhakFrWTtzeg_XYV1vg-14" style="edgeStyle=orthogonalEdgeStyle;rounded=1;sketch=0;orthogonalLoop=1;jettySize=auto;html=1;entryX=0;entryY=0.25;entryDx=0;entryDy=0;shadow=0;startArrow=ERone;startFill=0;endArrow=ERzeroToMany;endFill=0;strokeColor=default;" parent="1" source="VdJja3_kcnfSSBlb8b41-8" target="VdJja3_kcnfSSBlb8b41-6" edge="1">
          <mxGeometry relative="1" as="geometry" />
        </mxCell>
        <mxCell id="1IhakFrWTtzeg_XYV1vg-55" value="" style="group;dropTarget=0;pointerEvents=0;" parent="1" vertex="1">
          <mxGeometry x="260" y="120" width="540" height="45" as="geometry" />
        </mxCell>
        <UserObject label="%filename%" placeholders="1" lucidchartObjectId="xT36fCWVs47r" id="1IhakFrWTtzeg_XYV1vg-56">
          <mxCell style="points=[[0.163,0.967,0],[0.846,0.967,0]];html=1;overflow=block;blockSpacing=1;whiteSpace=wrap;fontSize=19.7;fontColor=#a9afb8;fontStyle=1;align=center;spacingLeft=7;spacingRight=7;spacingTop=2;spacing=3;strokeOpacity=0;fillOpacity=0;rounded=1;absoluteArcSize=1;arcSize=12;fillColor=#ffffff;strokeWidth=1.5;" parent="1IhakFrWTtzeg_XYV1vg-55" vertex="1">
            <mxGeometry width="539" height="31" as="geometry" />
          </mxCell>
        </UserObject>
        <UserObject label="" placeholders="1" lucidchartObjectId="xT3678LRERI0" id="1IhakFrWTtzeg_XYV1vg-57">
          <mxCell style="html=1;overflow=block;blockSpacing=1;whiteSpace=wrap;fontSize=11.5;fontColor=#a9afb8;align=center;spacingLeft=7;spacingRight=7;spacingTop=2;spacing=3;strokeOpacity=0;fillOpacity=0;rounded=1;absoluteArcSize=1;arcSize=12;fillColor=#ffffff;strokeWidth=1.5;" parent="1IhakFrWTtzeg_XYV1vg-55" vertex="1">
            <mxGeometry y="31" width="540" height="14" as="geometry" />
          </mxCell>
        </UserObject>
        <mxCell id="rh8cUA5D3BfhogW7gdkN-8" style="edgeStyle=orthogonalEdgeStyle;rounded=0;orthogonalLoop=1;jettySize=auto;html=1;entryX=0;entryY=0.5;entryDx=0;entryDy=0;" parent="1" source="rh8cUA5D3BfhogW7gdkN-1" target="rh8cUA5D3BfhogW7gdkN-4" edge="1">
          <mxGeometry relative="1" as="geometry" />
        </mxCell>
        <mxCell id="rh8cUA5D3BfhogW7gdkN-1" value="Domain" style="rounded=1;whiteSpace=wrap;html=1;" parent="1" vertex="1">
          <mxGeometry x="110" y="1420" width="120" height="60" as="geometry" />
        </mxCell>
        <mxCell id="rh8cUA5D3BfhogW7gdkN-10" value="" style="edgeStyle=orthogonalEdgeStyle;rounded=0;orthogonalLoop=1;jettySize=auto;html=1;" parent="1" source="rh8cUA5D3BfhogW7gdkN-2" target="rh8cUA5D3BfhogW7gdkN-3" edge="1">
          <mxGeometry relative="1" as="geometry" />
        </mxCell>
        <mxCell id="rh8cUA5D3BfhogW7gdkN-2" value="LB" style="rounded=1;whiteSpace=wrap;html=1;" parent="1" vertex="1">
          <mxGeometry x="450" y="1420" width="120" height="60" as="geometry" />
        </mxCell>
        <mxCell id="NvWh0HuVypmQRfrI9GER-3" style="edgeStyle=orthogonalEdgeStyle;rounded=0;orthogonalLoop=1;jettySize=auto;html=1;entryX=0;entryY=0.5;entryDx=0;entryDy=0;" parent="1" source="rh8cUA5D3BfhogW7gdkN-3" target="rh8cUA5D3BfhogW7gdkN-5" edge="1">
          <mxGeometry relative="1" as="geometry" />
        </mxCell>
        <mxCell id="rh8cUA5D3BfhogW7gdkN-3" value="EC2" style="rounded=1;whiteSpace=wrap;html=1;" parent="1" vertex="1">
          <mxGeometry x="654" y="1420" width="120" height="60" as="geometry" />
        </mxCell>
        <mxCell id="NvWh0HuVypmQRfrI9GER-2" style="edgeStyle=orthogonalEdgeStyle;rounded=0;orthogonalLoop=1;jettySize=auto;html=1;entryX=0;entryY=0.5;entryDx=0;entryDy=0;" parent="1" source="rh8cUA5D3BfhogW7gdkN-4" target="rh8cUA5D3BfhogW7gdkN-2" edge="1">
          <mxGeometry relative="1" as="geometry" />
        </mxCell>
        <mxCell id="rh8cUA5D3BfhogW7gdkN-4" value="Route 53" style="rounded=1;whiteSpace=wrap;html=1;" parent="1" vertex="1">
          <mxGeometry x="278" y="1420" width="120" height="60" as="geometry" />
        </mxCell>
        <mxCell id="rh8cUA5D3BfhogW7gdkN-6" value="EB 를 사용하여 LB, EC2 생성" style="rounded=1;whiteSpace=wrap;html=1;" parent="1" vertex="1">
          <mxGeometry x="497" y="1570" width="220" height="60" as="geometry" />
        </mxCell>
        <mxCell id="rh8cUA5D3BfhogW7gdkN-5" value="Certificate Manager" style="rounded=1;whiteSpace=wrap;html=1;" parent="1" vertex="1">
          <mxGeometry x="827" y="1420" width="120" height="60" as="geometry" />
        </mxCell>
        <mxCell id="rh8cUA5D3BfhogW7gdkN-15" style="edgeStyle=orthogonalEdgeStyle;rounded=0;orthogonalLoop=1;jettySize=auto;html=1;entryX=0.5;entryY=0;entryDx=0;entryDy=0;" parent="1" source="rh8cUA5D3BfhogW7gdkN-14" target="rh8cUA5D3BfhogW7gdkN-6" edge="1">
          <mxGeometry relative="1" as="geometry" />
        </mxCell>
        <mxCell id="rh8cUA5D3BfhogW7gdkN-14" value="" style="ellipse;whiteSpace=wrap;html=1;shadow=0;fillColor=none;" parent="1" vertex="1">
          <mxGeometry x="419" y="1345" width="376" height="210" as="geometry" />
        </mxCell>
        <mxCell id="rh8cUA5D3BfhogW7gdkN-18" value="" style="group;dropTarget=0;pointerEvents=0;" parent="1" vertex="1">
          <mxGeometry x="290" y="1220" width="540" height="45" as="geometry" />
        </mxCell>
        <UserObject label="Deploy Flow" placeholders="1" lucidchartObjectId="xT36fCWVs47r" id="rh8cUA5D3BfhogW7gdkN-19">
          <mxCell style="points=[[0.163,0.967,0],[0.846,0.967,0]];html=1;overflow=block;blockSpacing=1;whiteSpace=wrap;fontSize=19.7;fontColor=#a9afb8;fontStyle=1;align=center;spacingLeft=7;spacingRight=7;spacingTop=2;spacing=3;strokeOpacity=0;fillOpacity=0;rounded=1;absoluteArcSize=1;arcSize=12;fillColor=#ffffff;strokeWidth=1.5;" parent="rh8cUA5D3BfhogW7gdkN-18" vertex="1">
            <mxGeometry width="539" height="31" as="geometry" />
          </mxCell>
        </UserObject>
        <UserObject label="" placeholders="1" lucidchartObjectId="xT3678LRERI0" id="rh8cUA5D3BfhogW7gdkN-20">
          <mxCell style="html=1;overflow=block;blockSpacing=1;whiteSpace=wrap;fontSize=11.5;fontColor=#a9afb8;align=center;spacingLeft=7;spacingRight=7;spacingTop=2;spacing=3;strokeOpacity=0;fillOpacity=0;rounded=1;absoluteArcSize=1;arcSize=12;fillColor=#ffffff;strokeWidth=1.5;" parent="rh8cUA5D3BfhogW7gdkN-18" vertex="1">
            <mxGeometry y="31" width="540" height="14" as="geometry" />
          </mxCell>
        </UserObject>
      </root>
    </mxGraphModel>
  </diagram>
</mxfile>
